<svg xmlns="http://www.w3.org/2000/svg" xmlns:xlink="http://www.w3.org/1999/xlink" width="349.111" height="163.226" viewBox="0 0 92.369 43.187" xmlns:v="https://vecta.io/nano"><g transform="matrix(-.2137 -.102547 -.102547 .2137 113.586811 9.66506)" stroke="#000"><path d="M91.055 165.05c-1.021-2.464 1.274-11.303 3.941-15.179.451-.656.82-1.303.82-1.439 0-.315-2.037-2.206-4.167-3.869-1.56-1.218-1.981-1.742-1.399-1.742.329 0 3.594 1.07 5.948 1.95 1.75.654 1.862.665 2.359.228 1.042-.914 2.272-2.317 2.279-2.599.004-.159-.779-.672-1.74-1.141s-1.674-.926-1.584-1.015c.243-.243 6.76-.235 6.841.009.038.115 1.712.582 3.718 1.037l3.648.827 1.647-1.632c.906-.898 1.793-1.632 1.97-1.632.422 0 .43-.041-.338 1.694-1.003 2.267-.962 2.365 1.389 3.339 2.928 1.214 5.185 2.594 7.559 4.622s3.237 3.211 2.762 3.783c-.594.716-2.753.074-11.095-3.299-2.002-.809-3.761-1.375-3.937-1.267-.426.263-2.366 4.43-2.366 5.082 0 .284.655 1.494 1.455 2.69s1.455 2.405 1.455 2.686c0 .728-.987.664-2.768-.179-.803-.38-1.613-.632-1.801-.56s-.856 1.387-1.484 2.923c-1.034 2.525-1.714 3.62-2.249 3.62-.914 0-1.282-5.161-.545-7.644.227-.764.376-1.491.331-1.615-.141-.388-4.018-3.441-4.37-3.441-.391 0-1.327 1.803-3.231 6.218-2.127 4.932-3.814 8.194-4.283 8.28-.266.049-.552-.227-.763-.736zm2.482-2.98l3.361-7.342c1.559-3.706 2.16-4.371 3.21-3.551 4.371 3.414 4.213 3.156 3.534 5.762-.43 1.651-.365 5.099.112 5.992.452.844.759.412 2.143-3.011.64-1.583 1.3-2.93 1.467-2.994s1.162.248 2.211.695 1.954.812 2.012.812c.44 0-.13-1.271-1.398-3.121-1.705-2.486-1.702-2.274-.065-5.758 1.288-2.742 1.274-2.738 4.782-1.287 7.955 3.291 11.603 4.391 11.603 3.498 0-.422-2.673-3.003-4.498-4.343-1.811-1.33-3.951-2.504-5.722-3.137-.746-.267-1.639-.699-1.984-.959l-.628-.474.463-1.307c.255-.719.463-1.397.463-1.508s-.655.418-1.456 1.175-1.556 1.315-1.679 1.239-1.754-.448-3.625-.827-3.5-.749-3.62-.823c-.263-.163-5.496-.379-5.496-.227 0 .059.52.338 1.156.619 1.897.839 1.882 1.067-.213 3.227-1.269 1.308-1.858 1.538-2.733 1.066-.694-.375-4.056-1.557-4.957-1.743l-.794-.164.692.615a144.45 144.45 0 0 0 2.44 2.07c.961.8 1.816 1.625 1.898 1.833s-.279 1.041-.802 1.852c-2.183 3.383-3.753 8.108-4.022 12.103-.268 3.974.262 3.979 2.145.02zm10.478-12.719a38.15 38.15 0 0 0-2.183-1.43c-.686-.405-.988-.769-.986-1.188.004-.784 1.325-3.4 1.89-3.743.622-.378 6.045 2.387 6.045 3.081 0 .265-.54 1.31-1.2 2.321-1.398 2.142-1.76 2.24-3.566.959zm3.169-1.091c.611-.938 1.072-1.913 1.023-2.166-.101-.522-4.532-2.817-5.194-2.69-.402.078-1.871 2.652-1.894 3.32-.011.335 4.105 3.184 4.654 3.222.165.011.8-.747 1.411-1.685zm-30.892 10.219c-.242-.158.106-.489 1.182-1.127 2.212-1.312 3.042-2.624 3.195-5.054.079-1.25-.02-2.473-.278-3.456-.425-1.615-1.625-3.903-2.049-3.903a.26.26 0 0 1-.253-.265c0-.429.79-.304 1.566.25 2.022 1.44 3.021 4.184 2.889 7.931-.083 2.355-.146 2.606-.883 3.529-1.182 1.479-4.395 2.733-5.369 2.096zm2.723-.687c1.254-.436 2.672-1.978 3.041-3.305.61-2.196.061-5.546-1.258-7.674-1.032-1.665-1.525-1.66-.66.007.627 1.209.736 1.769.82 4.211.115 3.354-.246 4.319-2.265 6.049-1.365 1.17-1.315 1.282.322.712zm4.564-1.497c-.785-.457-.521-.7.916-.838 1.15-.11 1.499-.276 2.096-.991 1.776-2.127.797-7.642-1.551-8.733-.994-.462-.988-.797.022-1.134 2.488-.829 4.798 2.279 4.78 6.433-.014 3.308-1.837 5.557-4.491 5.541-.72-.004-1.517-.129-1.772-.278zm3.969-.766c1.292-.956 1.792-2.404 1.744-5.056-.031-1.724-.175-2.544-.588-3.354-.689-1.35-1.73-2.18-2.734-2.18h-.779l.886 1.035a8.87 8.87 0 0 1 1.345 2.315c.592 1.65.604 4.594.024 5.816-.42.886-1.517 1.682-2.317 1.682-.217 0-.479.137-.582.303-.335.543 2.132.081 3.001-.561zm-3.043-1.505c-.182-.073-.331-.309-.331-.524 0-.599 1.952-.376 2.068.236.067.356-.085.458-.659.442-.411-.012-.896-.081-1.078-.154zm-13.968-1.292c-1.124-.555-2.238-2.359-2.238-3.626 0-3.325 3.703-5.343 6.418-3.498 1.256.853 1.784 1.886 1.783 3.485-.002 3.083-3.171 5.017-5.963 3.639zm3.782-.425c.975-.603 1.906-2.26 1.908-3.399.004-1.736-1.972-3.661-3.79-3.691-1.995-.034-4.141 2.413-3.766 4.291.546 2.732 3.438 4.165 5.648 2.799zm84.445.333c-.813-.26-2.54-1.042-3.836-1.736-2.382-1.276-7.534-4.686-8.087-5.351-.752-.907.03-.743 6.258 1.309 2.504.825 5.611 2.545 7.169 3.969 2.345 2.144 1.756 2.853-1.504 1.81zm2.08-.623c-.595-.91-2.776-2.484-4.835-3.49-1.999-.977-7.751-2.936-7.972-2.716-.239.239 4.743 3.55 7.22 4.799 2.893 1.459 4.206 1.958 5.216 1.983.728.018.744-.006.371-.577zm-76.669-.177c0-.695 1.48-1.035 2.045-.471.586.586.183.979-1.002.979-.852 0-1.043-.093-1.043-.508zm1.72-.021c.093-.151-.135-.265-.529-.265s-.622.114-.529.265.328.265.529.265.439-.119.529-.265zm-1.984-1.531c0-.131.228-.445.507-.698.672-.608 1.742-.458 1.742.245 0 .433-.204.544-1.124.611-.618.045-1.124-.026-1.124-.157zm1.7-.617c-.171-.277-.642-.055-.642.304 0 .132.178.172.395.089s.328-.26.246-.393zm-1.965-1.328c0-.407.817-1.003 1.389-1.013.49-.009.565.213.302.896-.185.481-1.691.586-1.691.117zm1.191-.228c.09-.146.044-.265-.101-.265s-.338.119-.428.265-.044.265.101.265.338-.119.428-.265zm66.675-5.958c-3.445-.683-4.761-1.009-5.09-1.26-.801-.611.109-.817 5.436-1.23 2.291-.178 3.515-.142 5.227.154 4.204.725 5.246 1.446 3.158 2.184-1.469.519-6.446.606-8.731.152zm7.743-.403c.762-.163 1.385-.402 1.385-.53 0-.308-1.522-.704-4.109-1.069-2.596-.366-9.12.009-9.12.525 0 .223 2.468.801 5.292 1.238 2.383.369 4.286.321 6.552-.165zm-13.842-5.038c-.308-.499 6.196-3.784 9.355-4.725 1.826-.544 5.343-.755 5.343-.321 0 .578-3.844 2.861-5.953 3.536-2.487.796-8.54 1.841-8.745 1.51zm4.946-1.033c4.604-.977 4.286-.864 7.305-2.601.91-.523 1.654-1.046 1.654-1.161 0-.585-4.092.171-6.747 1.247-1.396.565-5.223 2.502-5.543 2.804-.397.375.623.287 3.331-.288zm-5.593-3.675c0-.829 5.468-7.055 7.996-9.105 1.556-1.261 4.094-2.649 4.284-2.342.086.139-.101.924-.415 1.745-.445 1.163-.993 1.887-2.484 3.279-2.68 2.503-9.381 7.091-9.381 6.423zm4.455-3.048c3.898-2.704 6.24-4.902 6.808-6.389.25-.655.393-1.253.318-1.328s-.599.126-1.163.447c-2.045 1.166-5.659 4.579-8.008 7.565-1.772 2.252-1.589 2.226 2.045-.295zm-90.05 56.114c-2.21-1.066-2.797-2.093-2.904-5.079l-.387-10.451-.5-14.552-.179-5.953-1.098-.497c-.842-.381-1.135-.682-1.257-1.29-.337-1.683-.199-2.28.622-2.705 1.251-.647 1.328-1.045.63-3.244-.651-2.05-2.954-10.943-3.638-14.049l-2.95-12.459c-.984-4.037-.991-4.631-.077-6.436.959-1.894 4.199-3.351 6.234-2.803 1.322.356 3.713 2.82 3.888 4.007.14.95.617 12.201 1.057 24.913l.293 8.457.833.238c.637.182 1.632.045 4.233-.583 1.87-.452 4.531-.993 5.914-1.202s3.049-.5 3.704-.646 2.381-.393 3.836-.547 3.42-.398 4.366-.541l6.879-.94 6.35-.918c.655-.131 1.965-.313 2.91-.403s2.791-.344 4.101-.564a97.15 97.15 0 0 1 4.498-.633c1.164-.128 3.903-.479 6.085-.778l6.482-.816a74.13 74.13 0 0 0 4.63-.665c1.164-.217 3.48-.573 5.146-.792 3.604-.475 5.374-1.143 7.687-2.902 4.447-3.383 9.364-9.126 16.828-19.652l2.525-3.556c1.183-1.662 1.925-2.002 2.854-1.308.773.577 1.046 1.481 1.336 4.419.368 3.729 1.028 8.669 1.448 10.848.225 1.164.409 2.674.409 3.356s.122 1.559.27 1.95.505 2.631.793 4.978l.895 7.046.684 5.159c.384 2.939 1.25 8.761 1.594 10.716.141.8.436 3.351.656 5.668.362 3.805.36 4.274-.012 4.843-.227.346-.593.699-.814.784-.785.301-2.49-.487-4.783-2.211l-4.575-3.536a78.62 78.62 0 0 0-1.637-1.252c-.536-.399-2.841-2.213-5.122-4.032l-5.911-4.63-3.345-2.58c-1.69-1.344-2.235-1.506-2.795-.831-.922 1.111-8.843 7.034-12.411 9.281-3.138 1.976-9.626 5.554-11.782 6.498-5.952 2.606-13.578 4.824-17.852 5.191-4.212.363-10.502-.286-14.128-1.457-4.617-1.492-7.125-2.847-11.783-6.368-2.428-1.835-6.428-6.584-7.763-9.217-.366-.722-.899-1.523-1.185-1.782-.451-.407-.562-.419-.839-.085-.317.382-.251.839.506 3.466.211.732 1.551 6.148 5.034 20.351.84 3.426 1.412 6.399 1.499 7.805l.142 2.271-.959 1.245c-1.046 1.358-1.882 1.731-4.392 1.959-1.176.107-1.709.01-2.778-.506zm4.36-.486c1.772-.618 3.124-2.791 2.827-4.545-.235-1.386-1.244-6.029-1.736-7.985l-.533-2.249-.653-2.91a113.27 113.27 0 0 0-.917-3.704l-1.599-6.085c-2.438-9.37-2.139-8.692-3.662-8.316l-.997.246.007 2.381c.004 1.31.099 5.179.212 8.599l.314 9.865c.06 2.006.169 3.744.242 3.862s.153 1.737.178 3.597c.053 3.965.239 4.981 1.076 5.877 1.394 1.493 3.388 2.013 5.242 1.367zm32.946-18.401c2.037-.21 4.359-.561 5.159-.782 3.305-.91 6.828-2.044 8.07-2.598a129.11 129.11 0 0 1 3.175-1.344c3.577-1.455 11.603-6.026 14.83-8.446l3.203-2.329c1.13-.801 3.177-2.395 5.431-4.23 1.028-.837 2.122-1.52 2.432-1.518s1.337.666 2.283 1.476 2.166 1.703 2.712 1.986.992.614.992.735.686.645 1.524 1.163 2.111 1.457 2.828 2.088c1.446 1.273 3.181 2.583 5.563 4.199.87.59 1.923 1.488 2.341 1.995s1.23 1.161 1.804 1.454 1.299.825 1.61 1.183.705.65.875.65.785.345 1.367.766c3.239 2.347 3.445 2.174 3.023-2.531-.344-3.838-.427-4.537-1.332-11.257l-.648-5.159c-.048-.551-.158-1.18-.243-1.398s-.212-1.111-.281-1.984-.375-3.122-.68-4.998-.554-3.889-.554-4.473-.229-2.384-.51-3.998c-.614-3.535-1.046-6.657-1.339-9.682-.12-1.237-.408-3.12-.64-4.184s-.423-2.493-.423-3.175c-.002-1.344-.412-3.121-.772-3.343-.43-.266-1.873.426-1.873.898 0 .548-1.986 3.527-5.391 8.085l-2.471 3.331c-.598.814-1.254 1.647-1.459 1.852a4.53 4.53 0 0 0-.619.815c-.803 1.435-8.3 9.141-9.926 10.202-2.316 1.512-5.082 2.314-9.372 2.719-1.601.151-3.268.383-3.704.515s-1.687.318-2.778.413a42.61 42.61 0 0 0-3.969.577 52.23 52.23 0 0 1-4.101.626c-1.164.122-2.772.349-3.572.505s-2.601.384-4.001.505-2.68.304-2.843.406-1.519.298-3.011.437-3.368.373-4.168.519-2.541.368-3.868.493-2.994.358-3.704.519-2.721.476-4.467.7c-5.884.755-8.725 1.172-9.922 1.454-.655.155-2.322.392-3.704.527-2.924.285-5.106.663-6.53 1.13l-1.011.332-.026 1.983c-.023 1.737.073 2.163.773 3.438 3.421 6.225 9.58 11.73 16.054 14.349a22.96 22.96 0 0 1 1.323.596c1.005.499 4.318 1.446 5.604 1.602.628.076 1.678.234 2.333.35 1.804.321 4.502.275 8.599-.146zm-38.755-18.611c1.73-.21 2.348-.398 2.705-.823.609-.724.586-1.428-.069-2.082-.623-.623-1.049-.594-5.999.415-.748.153-1.01 1.011-.605 1.988.369.892.561.916 3.968.502zm-.553-4.738c.449-.284.528-6.472.203-16.023l-.334-10.98c-.075-2.838-.248-5.58-.386-6.095-.25-.939-1.478-2.316-2.558-2.869-1.03-.528-3.166-.362-4.256.331-1.533.974-1.932 1.569-2.091 3.116-.138 1.346.161 3.081 1.09 6.311a49.75 49.75 0 0 1 .657 2.646c.597 2.759 1.357 5.957 1.729 7.276a63.88 63.88 0 0 1 .645 2.514c.859 3.768 2.41 9.526 3.055 11.344.226.637.411 1.357.411 1.601 0 .906 1 1.358 1.835.83z" stroke-width=".265"/><path d="M60.596 184.578c-1.099-.364-2.344-1.347-2.726-2.153-.274-.578-.401-1.691-.611-5.346-.379-6.603-.83-19.667-.834-24.175l-.004-3.848.858-.196c1.061-.243 1.232-.084 1.789 1.665 1.221 3.826 5.791 22.37 7.022 28.494.356 1.771.265 2.387-.56 3.796-.898 1.533-3.175 2.347-4.934 1.764zm-4.708-41.824c-.234-.164-.425-.403-.425-.532s-.389-1.525-.865-3.103-1.73-6.36-2.786-10.628l-2.887-11.649c-1.135-4.573-1.333-6.339-.852-7.599.887-2.322 4.682-3.417 6.573-1.895 1.292 1.04 1.899 2.011 2.036 3.255.364 3.314.93 26.56.722 29.63-.091 1.347-.199 2.479-.239 2.515-.286.255-.916.258-1.276.006zm-1.383 4.958c-.495-.18-.766-.682-.766-1.415 0-.388.108-.794.24-.901.343-.279 4.051-1.002 5.138-1.002.763 0 .984.085 1.315.505.496.631.501 1.036.019 1.649-.427.543-1.362.822-3.358 1.005l-1.82.194c-.263.039-.608.024-.766-.034z" fill="#fff" stroke-width=".263"/><g fill="#2a9fd7"><path d="M71.775 152.713c-1.125-.229-2.222-1.14-2.758-2.29-.444-.951-.416-1.937.079-2.853a4.92 4.92 0 0 1 2.007-1.966c1.238-.635 2.699-.301 3.89.89.832.832 1.108 1.452 1.103 2.479-.003.714-.053.921-.367 1.528-.887 1.717-2.355 2.538-3.955 2.212z" stroke-width=".151"/><path d="M77.735 158.074c0-.088.325-.413 1.096-1.097 1.767-1.568 2.157-2.485 2.156-5.064 0-1.094-.08-2.601-.166-3.165-.091-.593-.261-1.087-.668-1.948-.537-1.134-.572-1.478-.1-.983.552.581 1.258 1.886 1.626 3.009.406 1.239.577 2.303.577 3.601 0 1.453-.189 2.269-.726 3.138-.378.613-1.247 1.5-1.81 1.847-.55.339-1.984.818-1.984.662z" stroke-width=".076"/><path d="M85.184 152.047c-.217-.066-.4-.24-.351-.333.097-.181.844-.208 1.026-.037.026.024.046.061.046.083 0 .063-.176.217-.301.264-.113.042-.32.054-.421.023zm-.168-2.002c-.042-.042-.048-.061-.037-.122a.43.43 0 0 1 .15-.265c.141-.12.309-.136.425-.038.155.13.054.337-.213.438-.144.055-.263.05-.326-.012zm-.675-1.69c-.119-.042-.085-.2.074-.345.313-.286.629-.127.347.174-.131.14-.305.211-.421.17z" stroke-width=".027"/><path d="M84.593 156.254c-.081-.055-.072-.088.066-.227.117-.118.273-.18.57-.228.517-.083.819-.219 1.298-.583.936-.711 1.275-1.561 1.346-3.377.103-2.634-.492-4.406-2.103-6.258l-.48-.594c0-.024.267-.031.593-.017.512.022.651.054 1.014.233 1.098.54 2.058 2.031 2.253 3.498.193 1.449.141 3.35-.121 4.439-.282 1.171-1.029 2.189-1.906 2.596-.842.391-2.284.685-2.531.517zm6.899 8.604c-.13-.228-.106-2.907.037-3.98.345-2.596 1.047-5.079 2.163-7.642.444-1.021.891-1.868 1.656-3.139.535-.889.914-1.691.914-1.933 0-.05-.178-.282-.396-.515-.385-.411-.846-.817-3.269-2.876l-1.154-1.031c0-.251 3.236.795 5.613 1.813.877.376 1.271.2 2.666-1.195 1.136-1.136 1.552-1.688 1.552-2.062 0-.39-.177-.538-1.309-1.086l-1.037-.558c0-.107.428-.121 2.061-.063 2.182.077 2.783.139 3.856.4l3.057.671 2.917.638.761.186.412-.285c.227-.157.826-.659 1.332-1.115.942-.851 1.121-.988 1.195-.914.023.023-.162.639-.412 1.367l-.454 1.325.422.313c.524.389 1.291.773 2.483 1.245 2.909 1.151 5.394 2.769 8.054 5.241 1.171 1.089 1.839 1.859 1.839 2.12 0 .461-1.327.262-3.84-.575l-8.125-3.133c-1.556-.633-1.999-.768-2.51-.768-.69 0-.986.36-1.924 2.345-.992 2.098-1.125 2.461-1.131 3.078-.007.663.094.875 1.202 2.536 1.001 1.501 1.552 2.528 1.552 2.895 0 .135-.031.245-.069.245s-.687-.254-1.443-.565l-2.704-.958c-.236 0-.705.92-1.746 3.425-.99 2.382-1.372 3.059-1.662 2.948-.434-.166-.743-2.041-.659-3.987.052-1.21.123-1.709.39-2.778.494-1.973.394-2.144-2.668-4.557-1.21-.954-1.409-1.074-1.772-1.074-.23 0-.292.039-.637.399-.474.495-.894 1.294-1.861 3.536-1.643 3.809-3.88 8.515-4.529 9.527-.433.676-.66.824-.823.538zm14.642-14.766c.15-.072.404-.278.565-.458.563-.626 1.736-2.513 1.998-3.212.16-.428.121-.521-.379-.911-1.235-.962-4.607-2.581-5.376-2.581-.336 0-.786.583-1.41 1.827-.377.751-.704 1.676-.704 1.991 0 .361.297.74.861 1.097.275.174 1.066.696 1.758 1.158 1.905 1.274 2.122 1.362 2.687 1.088zm53.612 2.38c-1.268-.272-4.127-1.604-6.519-3.037-2.503-1.499-5.086-3.295-5.086-3.536 0-.094.291-.052.988.142a64.16 64.16 0 0 1 6.242 2.228c1.803.772 4.057 2.248 5.082 3.328.355.375.656.858.581.933-.069.069-.859.033-1.287-.059zm-6.213-10.464c-2.213-.278-5.917-1.068-6.055-1.292-.243-.394 4.611-.811 7.546-.649 2.192.121 4.969.649 5.514 1.047.113.082.11.092-.057.202-.258.169-1.085.395-2.129.581-.794.141-1.136.166-2.505.183-1.109.014-1.804-.008-2.313-.072zm-6.535-5.918c0-.04.164-.179.365-.308.463-.298 3.819-1.992 4.741-2.392 1.974-.858 5.019-1.621 6.469-1.621.95 0 .922.124-.19.84-1.427.919-3.217 1.849-4.097 2.13-.644.205-2.98.736-4.94 1.121-1.271.25-2.347.355-2.347.23zm-.887-5.263c0-.108.502-.824 1.132-1.613 2.184-2.736 5.244-5.698 7.366-7.134.483-.326 1.479-.84 1.63-.84.049 0 .083.075.083.182 0 .251-.287 1.107-.512 1.529-.824 1.542-3.242 3.683-7.305 6.47-1.161.796-2.225 1.459-2.342 1.459-.028 0-.05-.024-.05-.054z" stroke-width=".087"/></g><g fill="#fff"><path d="M104.473 149.187c-1.199-.739-2.831-1.948-3.152-2.335-.155-.186-.072-.469.433-1.478.343-.686.793-1.406.999-1.599.352-.331.412-.339.998-.132.88.311 2.851 1.317 3.644 1.861.449.308.67.575.67.81 0 .611-1.943 3.573-2.343 3.573-.062 0-.624-.315-1.248-.7z" stroke-width=".216"/><path d="M88.288 166.36l-2.036-.316c-4.34-.657-8.868-2.465-12.946-5.168-4.396-2.914-8.395-7.201-10.704-11.476-.661-1.223-.781-1.795-.781-3.722v-1.631l1.07-.324c1.739-.527 2.864-.725 6.395-1.123 1.321-.149 2.989-.384 3.706-.522 1.812-.35 3.361-.581 8.3-1.243l5.69-.831c1.768-.322 2.497-.425 4.907-.694 1.062-.118 2.495-.305 3.184-.414s2.146-.296 3.237-.415c2.457-.267 3.387-.399 4.124-.583.316-.079 1.514-.242 2.662-.361 2.002-.208 4.002-.472 4.333-.572.086-.026 1.429-.212 2.984-.413s3.317-.459 3.915-.573c1.505-.287 2.92-.497 4.637-.689.804-.09 1.884-.251 2.401-.357s1.562-.269 2.323-.36l2.767-.33c3.607-.428 6.516-1.401 8.431-2.82.373-.277 2.092-1.915 3.819-3.64 3.09-3.086 4.983-5.143 5.678-6.167a15.28 15.28 0 0 1 .843-1.094c.593-.695 5.192-6.889 6.628-8.927 1.374-1.949 2.43-3.658 2.56-4.142.082-.304.208-.453.547-.646 1.006-.573 1.346-.493 1.625.382.276.867.321 1.148.438 2.736.055.746.262 2.256.46 3.354s.506 3.259.684 4.803a134.66 134.66 0 0 0 1.046 7.557c.445 2.694.601 3.859.728 5.429.063.775.275 2.49.471 3.811l.788 5.847c.065.574.181 1.326.258 1.67s.194 1.096.26 1.67l.789 6.145c.928 7.07 1.361 11.39 1.282 12.79-.078 1.378-.471 1.386-2.458.045-.735-.495-1.547-.994-1.805-1.108s-.758-.47-1.11-.792-1.024-.812-1.492-1.09c-.544-.323-1.296-.929-2.078-1.674-.752-.717-1.849-1.605-2.84-2.301-1.669-1.171-3.319-2.432-5.217-3.984a37.68 37.68 0 0 0-2.434-1.79c-.736-.491-1.411-1.004-1.499-1.139s-.45-.419-.802-.63c-.83-.497-1.904-1.269-2.885-2.074-.992-.815-1.837-1.392-2.154-1.471-.582-.146-1.152.214-4.267 2.693-3.677 2.927-7.861 5.948-10.597 7.651-7.833 4.876-15.024 8.078-22.395 9.972-1.203.309-3.244.625-5.794.898-1.708.183-6.878.287-7.674.155zm4.044-1.103c.544-.713 2.298-4.287 3.896-7.934 1.413-3.227 2.393-5.237 2.797-5.735l.248-.306.382.226c1.042.615 4.033 3.064 4.033 3.302 0 .078-.114.582-.254 1.119-.395 1.521-.511 2.671-.449 4.475s.284 2.997.637 3.407c.206.239.254.252.514.134.513-.234 1.073-1.216 2.212-3.875.386-.902.841-1.858 1.01-2.126.284-.447.335-.482.631-.422.177.035.727.233 1.221.44 1.836.767 2.563.921 2.876.608.343-.343.147-.818-1.249-3.029-.474-.751-1.015-1.667-1.202-2.036l-.339-.67.236-.679a28.83 28.83 0 0 1 1.692-3.68c.279-.48.474-.705.609-.705.393 0 1.994.569 5.622 1.999 6.537 2.576 8.629 3.17 9.191 2.609.488-.488.142-1.17-1.329-2.626-2.548-2.521-4.904-4.098-8.642-5.783-.984-.444-1.895-.919-2.024-1.056-.34-.362-.245-.88.466-2.541.93-2.174.544-2.128-1.88.222-.815.79-1.542 1.436-1.616 1.436-.345 0-5.792-1.313-6.624-1.597-.926-.315-.977-.321-3.444-.364-2.715-.047-4.021.025-4.021.22 0 .145.546.49 1.851 1.169.53.276 1.066.61 1.19.742l.226.241-.273.413c-.422.637-2.111 2.291-2.419 2.368-.19.048-.623-.053-1.391-.323-2.189-.77-5.924-2.013-6.258-2.084-.263-.056-.354-.033-.405.1-.089.231.336.66 1.998 2.019 1.716 1.403 3.217 2.757 3.501 3.155.27.379.238.489-.434 1.518-2.355 3.607-4.263 9.626-4.3 13.564-.011 1.214.013 1.415.232 1.908.408.917.693.957 1.285.179zm-14.014-6.804c.965-.264 2.348-1.043 3.013-1.697.787-.775 1.046-1.325 1.167-2.478.296-2.817-.079-5.477-1.028-7.286-.444-.846-1.525-2.005-2.182-2.339-.485-.246-1.136-.296-1.207-.093-.066.19.03.392.187.392.218 0 .658.593 1.116 1.504.953 1.895 1.232 3.043 1.23 5.056-.002 1.542-.17 2.458-.612 3.333-.439.87-1.125 1.535-2.552 2.473-1.33.874-1.497 1.121-.88 1.297.392.111.936.061 1.749-.161zm7.785-1.923c1.747-.322 2.994-1.601 3.553-3.644.291-1.064.247-3.1-.097-4.41-.624-2.38-1.933-3.879-3.508-4.016-.646-.056-1.521.203-1.713.509-.146.233.012.413.711.807 1.398.789 2.354 2.947 2.37 5.351.008 1.191-.13 1.98-.464 2.644-.543 1.08-1.085 1.458-2.327 1.625-1.103.148-1.527.288-1.487.492.056.286.538.548 1.18.642.895.13 1.088.13 1.782.002zm-.015-2.35c.211-.081.214-.5.005-.708-.321-.321-1.333-.479-1.726-.269-.243.13-.265.545-.04.732.272.226 1.401.383 1.761.245zm-11.923-1.369a4.1 4.1 0 0 0 1.995-1.992c.304-.642.331-.785.329-1.744-.003-1.475-.2-1.997-1.085-2.877-1.312-1.304-2.8-1.653-4.419-1.036-1.714.653-2.775 2.266-2.668 4.056.1 1.678 1.348 3.331 2.888 3.824.313.1.797.144 1.373.125.74-.025 1.007-.085 1.587-.356zm87.455.123c.484-.453-.875-1.975-3.073-3.439-1.777-1.184-3.864-2.142-6.729-3.088-2.749-.908-4.864-1.494-5.084-1.41-.427.164.221.812 2.158 2.159 4.614 3.209 8.935 5.464 11.268 5.878.837.149 1.222.122 1.46-.1zm-75.248-.851c.22-.22.221-.237.046-.504-.285-.434-.826-.614-1.408-.468-.598.15-.845.367-.845.742 0 .416.25.52 1.172.487.666-.024.847-.069 1.034-.257zm-.387-1.801c.091-.076.164-.296.164-.494 0-.311-.048-.378-.369-.512-.527-.22-1.071-.052-1.551.479-.6.665-.52.74.738.694.505-.018.921-.087 1.018-.167zm-.862-1.791c.11-.059.245-.225.3-.369.266-.699-.063-1-.79-.722-.841.321-1.261.993-.755 1.207.263.111.939.048 1.245-.116zm74.462-6.295c1.388-.316 1.977-.772 1.573-1.218-.554-.612-4.591-1.451-6.99-1.454-1.997-.002-6.778.46-7.648.74-.405.13-.453.431-.104.66.449.294 4.325 1.192 6.131 1.42 1.159.146 6.21.04 7.038-.148zm-11.786-5.604c1.839-.27 4.139-.74 5.679-1.161 1.933-.529 5.499-2.422 6.427-3.412.477-.509.296-.59-1.279-.575-2.898.029-5.027.674-9.482 2.873-2.435 1.202-3.899 2.138-3.742 2.393.094.152.801.117 2.397-.117zm-2.296-4.732c1.177-.557 4.823-3.079 7.073-4.892 1.503-1.211 2.817-2.5 3.357-3.293.494-.726 1.059-2.105 1.122-2.739.031-.311.002-.368-.199-.397-.613-.087-3.325 1.598-4.985 3.098-1.574 1.422-4.702 4.852-6.1 6.687-1.324 1.739-1.38 2.062-.269 1.536z" stroke-width=".143"/></g><path d="M85.475 154.295c-.48-.034-.946-.145-1.147-.273-.115-.074-.199-.209-.221-.358-.009-.061-.004-.176.01-.23.033-.125.108-.23.204-.285.196-.112.561-.141.954-.078.358.058.656.172.831.319a.64.64 0 0 1 .208.509.46.46 0 0 1-.049.198c-.057.115-.141.162-.337.189a3.77 3.77 0 0 1-.454.008z" fill="#2a9fd7" stroke-width=".407"/></g><g fill="#fff"><path d="M8.853 21.391q-.466 0-1.016-.127-.529-.106-.91-.381-.381-.275-.381-.783 0-.445.423-.889.423-.423.974-.783.572-.339.953-.529 1.08-.55 2.392-.931 1.334-.381 2.71-.635 1.376-.233 2.604-.339.402-.487.741-.995.339-.508.635-1.037.847-1.566 1.566-3.196.72-1.651 1.376-3.281l-.085-.021q-.445.614-1.101 1.461-.635.847-1.439 1.736-.783.889-1.693 1.651-.889.762-1.82 1.228-.931.466-1.863.466-1.058 0-1.503-.529-.423-.529-.423-1.376 0-.931.36-1.905.381-.995.868-1.778.741-1.185 1.503-2.371.762-1.207 1.376-2.455.148-.275.318-.677.191-.402.339-.804.148-.423.148-.72 0-.318-.254-.508-.233-.191-.572-.254-.339-.085-.635-.085-.656 0-1.439.212-.783.191-1.524.487-.741.296-1.334.572-.593.275-1.334.826-.72.55-1.376 1.249-.656.677-1.08 1.397-.423.72-.423 1.355 0 .72.593 1.016.614.296 1.334.296.508 0 1.016-.106.508-.127.931-.339.127-.064.233-.064.148 0 .254.106.106.085.106.212 0 .212-.318.36-.318.148-.762.254-.445.085-.847.127-.381.042-.55.042-.656 0-1.27-.191-.614-.212-.995-.614-.381-.423-.381-1.058 0-.741.423-1.545.445-.804 1.122-1.545.699-.762 1.482-1.355.804-.614 1.503-.953.995-.487 2.265-.868 1.27-.402 2.413-.402.466 0 .931.106.487.106.804.381.339.254.339.741 0 .593-.275 1.312-.254.72-.529 1.27-.614 1.27-1.397 2.477-.783 1.207-1.524 2.413-.275.466-.593 1.058-.296.593-.508 1.207-.212.614-.212 1.143 0 1.27 1.482 1.27.804 0 1.566-.402.762-.402 1.439-.953.677-.572 1.143-1.058 1.058-1.058 1.947-2.244.889-1.185 1.693-2.392.233-.36.466-.72.254-.381.466-.741.127-.191.233-.402.127-.212.275-.381.085-.106.191-.212.106-.106.275-.106.169 0 .233.127.085.106.085.233 0 .127-.064.254-.423 1.143-.91 2.286-.466 1.143-.953 2.265-.572 1.334-1.164 2.667-.593 1.334-1.291 2.625-.466.826-1.058 1.693.254-.021.508-.021.254 0 .487 0 .381 0 .995.021.635.042 1.312.085.677.064 1.27.148.593.085.931.212.275.106.275.318 0 .106-.085.212-.085.106-.254.106-.085 0-.127-.021-.318-.106-.656-.169-.318-.042-.656-.085-1.355-.191-2.731-.191-.466 0-.931.021-.445.021-.91.064-.699.826-1.588 1.672-.889.847-1.926 1.545-1.016.699-2.201 1.122-1.164.423-2.434.423zm-.296-.529q.593 0 1.228-.148.635-.127 1.164-.296.974-.318 1.905-.931.931-.593 1.757-1.334.826-.741 1.439-1.418-1.715.127-3.514.529-1.778.423-3.281 1.164-.296.148-.762.423-.466.275-.826.593-.36.339-.36.699 0 .445.423.572.423.148.826.148z"/><use xlink:href="#B"/><path d="M29.979 14.258q-.339 0-.339-.296 0-.042.169-.466.191-.423.445-.974.254-.55.466-1.016.212-.487.275-.614-.021-.106-.127-.423-.085-.339-.085-.635 0-.233.085-.381.085-.169.296-.169.106 0 .233.127.148.127.212.169.169-.318.296-.635.127-.318.275-.635.72-1.672 1.376-3.239.656-1.588 1.439-3.239.106-.191.275-.296.191-.106.339-.106.318 0 .318.275 0 .169-.233.762-.212.572-.593 1.376-.36.804-.783 1.693-.423.868-.826 1.693-.402.804-.699 1.397-.296.593-.402.804l.106.042q.635-.868 1.397-1.609.783-.762 1.842-1.249.656-.296 1.185-.296.466 0 .741.212.296.212.296.572 0 .423-.423.974-.339.423-.889.804-.529.381-1.08.656-.55.275-.995.423-.466.148-.931.233-.445.085-.931.169-.233.021-.445.212-.191.169-.233.339.127.508.466 1.143.339.635.868 1.101.529.445 1.228.445.699 0 1.249-.487.572-.487 1.08-1.228.529-.762 1.101-1.545.106-.127.275-.127h.042q.212 0 .212.318 0 .085-.064.191-.233.36-.614.931-.381.572-.889 1.164-.487.572-1.101.974-.614.402-1.291.402-.804 0-1.439-.36-.614-.36-1.037-.931-.402-.593-.593-1.207-.318.593-.593 1.207-.254.614-.614 1.164-.042.064-.148.127-.085.064-.191.064zm3.281-4.615q.466-.064 1.08-.233.635-.191 1.249-.487.614-.296 1.016-.699.212-.212.36-.466.148-.275.148-.487 0-.318-.318-.318-.318 0-1.037.402-.762.445-1.397 1.037-.614.572-1.101 1.249z"/><use xlink:href="#B" x="15.114"/><path d="M49.623 14.385q-.529 0-.931-.296-.381-.296-.381-.889 0-.826.445-1.736.445-.91 1.08-1.757.635-.868 1.185-1.524.339-.36.339-.614 0-.191-.191-.212-.064-.021-.169-.021-.466 0-.931.339-.466.339-.762.572-.974.762-1.884 1.778-.91 1.016-1.503 1.863-.212.318-.36.783-.148.445-.275.847-.106.402-.254.572-.212.254-.466.254-.191 0-.318-.127-.127-.148-.127-.36 0-.127.021-.191.254-.995.656-2.18.423-1.207.889-2.371.487-1.185.931-2.117.318-.677.741-1.524.445-.868.995-1.715.572-.868 1.249-1.545.699-.677 1.524-.995.318-.127.635-.127.423 0 .72.212.318.212.318.699 0 .466-.339 1.08-.339.593-.847 1.207-.508.614-1.037 1.143-.529.529-.931.868-.931.762-1.778 1.418-.826.656-1.397 1.355-.381 1.058-.529 1.757.593-.804 1.439-1.63.847-.847 1.588-1.418.402-.318.995-.699.593-.381 1.185-.381.423 0 .677.212.254.212.254.572 0 .487-.487 1.058-.487.572-1.08 1.397-.572.826-.995 1.672-.402.847-.402 1.545 0 .339.191.487.191.148.445.148.381 0 .699-.254.529-.402.974-.953.466-.55.847-1.101.381-.55.656-.953.212-.339.487-.339.212 0 .212.233 0 .064-.021.148-.021.085-.085.191-.296.529-.783 1.164-.466.635-.953 1.207-.487.55-.889.826-.55.423-1.27.423zm1.778-12.68q-.656.254-1.291.889-.614.635-1.207 1.524-.572.889-1.08 1.884-.508.974-.91 1.926.699-.635 1.249-1.08.572-.445 1.122-.931.487-.423 1.037-1.037.572-.635 1.037-1.312.487-.677.677-1.249.042-.106.064-.191.021-.106.021-.169 0-.339-.339-.339-.085 0-.191.021-.085.021-.191.064z"/><use xlink:href="#C"/><path d="M61.71 14.617q-.106 0-.233-.064-.127-.064-.127-.169 0-.064.021-.148.021-.085.042-.148.233-.529.656-1.355.423-.826.889-1.736.466-.931.783-1.715.318-.783.318-1.207 0-.127-.064-.233-.042-.127-.212-.127-.275 0-.656.275-.36.254-.741.699-.212.254-.55.741-.339.466-.699 1.016-.36.529-.677.995-.296.466-.466.656-.148.212-.36.212-.148 0-.212-.106-.085-.106 0-.254.169-.318.508-.847.36-.529.741-1.101.381-.572.699-1.016.318-.445.402-.572.36-.466.868-.889.529-.423 1.207-.423.974 0 .974.868 0 .402-.191.931-.191.529-.55 1.228.677-.699 1.164-1.143.508-.445.995-.826.487-.402 1.016-.402.445 0 .741.318.318.318.318.931 0 .191-.042.445-.021.233-.127.656.72-.783 1.524-1.376.826-.593 1.524-.974.72-.402 1.122-.508.212-.064.402-.106.212-.042.381-.042.212 0 .339.106.127.106.127.402 0 .296-.381.847-.381.529-.931 1.228-.529.677-1.016 1.376-.487.699-.699 1.312-.106.36-.106.529 0 .572.529.572.36 0 .868-.339.55-.36 1.185-1.164.635-.804 1.185-1.651.127-.191.339-.191.148 0 .191.085.042.064.042.127 0 .106-.212.508-.191.402-.656 1.016-.593.783-1.08 1.249-.466.445-.762.614-.275.169-.572.254-.296.064-.593.064-.677 0-.974-.275-.296-.296-.296-.699 0-.55.36-1.249.381-.699.889-1.397.508-.72.953-1.291.466-.572.635-.826.085-.106.085-.212 0-.169-.233-.169-.127 0-.296.064-.868.36-1.715.995-.847.614-1.524 1.249-.656.635-1.016 1.058-.085.296-.233.804-.148.487-.402.868-.254.381-.656.381-.191 0-.318-.127-.106-.148-.106-.296 0-.55.339-1.016.339-.466.783-.868.106-.36.296-.931.191-.593.191-.995 0-.339-.169-.529-.148-.191-.381-.191-.275 0-.55.212-1.037.72-1.842 1.778-.804 1.037-1.439 2.032-.339.487-.635 1.016-.275.529-.614 1.016-.064.085-.127.127-.064.042-.191.042z"/><use xlink:href="#C" x="21.105"/><path d="M31.068 24.159q-.381 0-1.058-.042-.656-.064-1.291-.169-.635-.106-.974-.296-.445-.275-.804-.656-.381-.381-.381-.889 0-.614.508-1.08.508-.487 1.249-.804.762-.318 1.545-.487.783-.191 1.334-.212.254-.021.487-.021.254 0 .508 0 2.328 0 4.636.487 2.307.487 4.551 1.016 1.397.339 2.879.635 1.482.296 2.942.296.233 0 .593-.021.36-.042.635-.169.296-.127.296-.402 0-.212-.148-.296-.127-.106-.275-.169-.148-.085-.148-.233 0-.127.106-.233.127-.106.275-.106.212 0 .445.191.254.191.423.445.191.254.191.466 0 .487-.423.741-.423.233-.995.318-.55.064-.953.064-1.461 0-2.942-.296-1.461-.296-2.879-.635-2.223-.529-4.53-.995-2.286-.487-4.615-.487-.254 0-.508 0-.233 0-.487.021-.593.042-1.376.233-.783.169-1.482.487-.677.318-.995.804-.148.212-.148.402 0 .339.296.614.318.275.614.445.275.169.826.275.572.085 1.143.127.593.021.91.021.868 0 1.715-.106.847-.106 1.651-.318.127-.042.423-.148.296-.106.635-.212.36-.127.593-.212.254-.106.275-.106.169 0 .275.127.106.106.106.233 0 .148-.212.254-.402.212-.91.381-.508.148-.995.275-1.715.445-3.535.445zm3.006 10.563q-.339 0-.339-.318 0-.233.106-.55.127-.318.212-.529.508-1.249 1.185-2.477.699-1.228 1.355-2.434.191-.36.572-1.016.381-.677.762-1.439.402-.783.677-1.439.296-.656.296-.995 0-.106-.042-.169-.042-.085-.042-.169 0-.106.106-.191.106-.085.254-.085.275 0 .339.212.064.212.064.402 0 .423-.275 1.122-.275.677-.677 1.461-.381.762-.762 1.461-.381.677-.614 1.101-.656 1.185-1.334 2.392-.677 1.207-1.185 2.455-.085.233-.169.466-.064.233-.127.466-.064.275-.36.275zm8.382-.55q-.402 0-.699-.254-.275-.254-.275-.804 0-.445.169-.91.169-.487.318-.762.339-.677.72-1.249.381-.593.572-.847-.381.021-.91-.191-.508-.212-.72-.55-.275.402-.783 1.312-.508.889-1.291 1.884-.127.169-.296.169-.318 0-.318-.275 0-.106.064-.191.318-.445.783-1.143.487-.72.931-1.482.466-.783.741-1.397.085-.191.169-.402.106-.212.191-.402.085-.148.233-.254.148-.127.339-.127.169 0 .339.148.169.127.169.296 0 .191-.148.487-.127.275-.275.572-.148.296-.148.529 0 .191.318.254.318.064.466.064.572 0 .953-.233.381-.233.529-.233.127 0 .212.106.106.085.106.191 0 .148-.127.254-.296.275-.699.783-.402.508-.804 1.101-.402.593-.699 1.164-.085.212-.254.593-.148.381-.148.72 0 .572.402.572.169 0 .381-.127.233-.127.445-.296.508-.466.889-.91.402-.466.804-1.037.402-.572.931-1.376.085-.148.296-.148.275 0 .275.254 0 .127-.127.36-.296.529-.783 1.164-.466.635-.974 1.207-.487.55-.868.847-.677.572-1.397.572z"/><path d="M49.272 25.239q-.106 0-.233-.042-.127-.042-.127-.191 0-.106.064-.191.169-.318.614-.55.466-.233.699-.233.106 0 .233.064.127.042.127.191 0 .36-.445.656-.423.296-.931.296zm-2.371 8.658q-.72 0-1.143-.402-.423-.402-.423-1.122 0-.423.085-.826.085-.423.233-.826.085-.233.339-.762.275-.55.635-1.143.36-.614.699-1.037.339-.423.593-.423.106 0 .275.085.191.064.191.212 0 .085-.085.212-.487.55-1.016 1.312-.529.762-.889 1.588-.36.826-.36 1.588 0 .974.931.974.635 0 1.27-.614.656-.614 1.439-1.651.233-.296.402-.572.191-.296.339-.508.148-.148.318-.148.254 0 .254.191 0 .233-.339.741-.339.508-.762 1.058-.826 1.016-1.439 1.545-.614.529-1.545.529zm-.55 7.197q-.402 0-.572-.233-.191-.212-.191-.55 0-.423.191-.953.169-.508.423-1.037.233-.529.466-.931.233-.402.339-.593.529-.91 1.122-1.778.593-.868 1.249-1.715.614-.783 1.249-1.545.635-.783 1.334-1.503.064-.381.085-.783.021-.402.021-.804 0-.233 0-.445 0-.212-.021-.402-.021-.169-.085-.339-.064-.169-.127-.318 0-.042-.021-.085 0-.042 0-.064 0-.127.254-.212.254-.085.402-.085.339 0 .402.381.064.36.064.593 0 .445-.064.889-.042.423-.085.847.233-.233.635-.593.423-.381.889-.762.487-.381.953-.635.487-.254.868-.254.614 0 .931.445.339.423.445.974.127.55.106.953.191-.042.72-.064.55-.042.889-.042.275 0 .339.085.085.064.085.169 0 .064-.064.148-.064.085-.233.106-.254.021-.635.085-.36.042-.699.106-.339.042-.508.106-.169.72-.677 1.482-.508.741-1.249 1.397-.741.635-1.609 1.016-.868.402-1.757.402-.254 0-.55-.064l-.127.318q-.318.72-.847 1.715-.508 1.016-1.185 1.969-.191.254-.529.677-.339.445-.762.868-.445.445-.931.741-.487.318-.931.318zm6.118-9.526q1.037-.699 2.117-1.143 1.08-.445 2.328-.72.064-.36.064-.699 0-.212-.064-.487-.042-.296-.212-.529-.148-.233-.466-.233-.339 0-.868.36-.508.339-1.08.826-.55.487-1.016.931-.466.445-.656.656zm-.085 2.392q.847 0 1.651-.466.826-.487 1.461-1.164.656-.677.974-1.27.085-.169.148-.339.064-.169.148-.318-1.334.339-2.434.847-1.08.487-2.117 1.291-.085.339-.169.677-.064.318-.169.656.191.085.508.085zm-5.842 6.435q.296 0 .699-.339.381-.318.804-.783.402-.466.72-.889.318-.423.445-.614.656-.995 1.143-2.032.487-1.016.656-1.672-.064-.106-.085-.233-.021-.127-.021-.254 0-.381.191-.741.191-.36.487-.635.042-.148.085-.318.042-.169.064-.339-.593.677-1.016 1.164-.402.487-.762.953-.656.847-1.249 1.715-.593.868-1.122 1.799-.106.191-.318.572-.212.381-.423.826-.233.466-.381.868-.148.423-.148.677 0 .275.233.275z"/></g><defs ><path id="B" d="M24.052 14.723q-.572 0-.91-.296-.339-.296-.508-.72-.148-.445-.148-.826 0-.508.191-1.122.191-.635.339-.868 0-.064-.021-.127 0-.085 0-.148 0-.572.169-1.185.191-.72.677-1.312.487-.614 1.207-.995.741-.381 1.609-.381 1.016 0 1.566.55.55.529.55 1.397 0 1.207-.445 2.074-.423.868-.91 1.672-.085.169-.148.275-.064.106.127.106.614 0 1.207-.508.593-.508 1.503-1.926.064-.106.127-.169.064-.064.191-.064h.042q.233 0 .275.275 0 .064-.042.148-.529.931-1.08 1.609-.529.677-1.27 1.037-.741.339-1.863.36-.445.423-1.101.783-.635.36-1.334.36zm2.032-1.947h.212q.445-.529.847-1.207.423-.677.677-1.397.254-.741.254-1.397 0-.614-.318-1.037-.318-.445-1.101-.445-.529 0-1.037.233-.487.212-.847.529l.064.085q.042-.021.127-.021.127 0 .233.106.106.085.106.191 0 .064-.021.106-.021.042-.064.085-.36.529-.699.995-.339.466-.635 1.058-.064.148-.148.296.169.783.783 1.312.635.508 1.566.508zm-1.905 1.355q.423 0 .847-.254.423-.275.72-.508-1.609-.169-2.371-1.418-.021.148-.085.445-.064.296-.064.593 0 .423.191.783.191.36.762.36z"/><path id="C" d="M53.433 14.321q-.699 0-.974-.36-.254-.381-.254-.91 0-.508.169-1.058.169-.55.36-1.016.212-.487.339-.72.381-.656.847-1.27.487-.614 1.037-1.08.55-.487 1.122-.741.593-.275 1.185-.275 1.016 0 1.439.55.423.529.423 1.143 0 .212-.064.445-.085.318-.212.55-.106.233-.275.233-.148 0-.275-.148-.127-.148-.085-.296.042-.148.106-.296.085-.148.106-.296.021-.106.021-.191.021-.085.021-.169 0-.572-.381-.783-.36-.233-.783-.233-.487 0-1.016.275-.508.275-.889.635-.466.466-.931 1.08-.466.614-.804 1.249-.042.106-.233.508-.169.402-.339.91-.148.487-.148.91 0 .296.127.508.148.212.487.212.36 0 .826-.339.487-.339.974-.826.508-.508.91-.974.402-.466.593-.72.127-.169.233-.36.127-.212.254-.381.064-.085.254-.085.169 0 .339.106.191.085.148.254-.085.148-.318.656-.212.487-.402 1.08-.191.572-.191 1.016 0 .55.339.635.233.042.487-.169.275-.212.487-.487.233-.275.339-.402.445-.593.826-1.207.402-.635.804-1.185.127-.169.296-.169.296 0 .296.318 0 .106-.275.55-.275.423-.677.974-.381.55-.72.995-.339.445-.762.868-.423.423-1.08.423-.614 0-.847-.275-.212-.275-.212-.614 0-.296.064-.614.064-.339.127-.572l-.085-.064q-.191.233-.572.593-.381.36-.847.741-.466.36-.931.614-.445.254-.804.254z"/></defs></svg>